# xmcd
#
# Track frame offsets:
#	150
#	11782
#	20956
#	30131
#	43801
#	55149
#	66515
#	75321
#	86629
#	94703
#	105935
#	115054
#
# Disc length: 1698 seconds
#
# Revision: 0
# Processed by: cddbd v1.5.2PL0 Copyright (c) Steve Scherf et al.
# Submitted via: EasyCDDAExtractor 15.3.0.1
#
DISCID=8d06a00c
DTITLE=Willis Brothers - Give Me Forty Acres To Turn This Rig Around
DYEAR=1900
DGENRE=
TTITLE0=Give Me 40 Acres (To Turn This Rig Around)
TTITLE1=Love Avenue
TTITLE2=Blazing Smoke Stack
TTITLE3=Strange Old Town
TTITLE4=Truck Driving Sam
TTITLE5=Gonna Buy Me A Juke Box
TTITLE6=Truck Stop Cutie
TTITLE7=One Thousand Acres
TTITLE8=Wheels A Turning
TTITLE9=I Just Broke Up With My Baby
TTITLE10=When I Come Driving Through
TTITLE11=Too Early To Get Up
EXTD=
EXTT0=
EXTT1=
EXTT2=
EXTT3=
EXTT4=
EXTT5=
EXTT6=
EXTT7=
EXTT8=
EXTT9=
EXTT10=
EXTT11=
PLAYORDER=
